<svg width="64" height="64" viewBox="0 0 64 64" fill="none" xmlns="http://www.w3.org/2000/svg">
  <!-- Background circle -->
  <circle cx="32" cy="32" r="32" fill="#1a1a1a"/>
  
  <!-- Brain icon with heart -->
  <g transform="translate(16, 16)">
    <!-- Left brain hemisphere -->
    <path d="M8 8 Q4 8 4 12 Q4 16 6 18 Q4 20 4 24 Q4 28 8 28" 
          stroke="#BA9465" stroke-width="2.5" fill="none" stroke-linecap="round"/>
    
    <!-- Right brain hemisphere -->
    <path d="M24 8 Q28 8 28 12 Q28 16 26 18 Q28 20 28 24 Q28 28 24 28" 
          stroke="#BA9465" stroke-width="2.5" fill="none" stroke-linecap="round"/>
    
    <!-- Brain details -->
    <path d="M10 12 Q12 14 14 12" stroke="#BA9465" stroke-width="1.5" fill="none" stroke-linecap="round"/>
    <path d="M18 12 Q20 14 22 12" stroke="#BA9465" stroke-width="1.5" fill="none" stroke-linecap="round"/>
    <path d="M10 20 Q12 22 14 20" stroke="#BA9465" stroke-width="1.5" fill="none" stroke-linecap="round"/>
    <path d="M18 20 Q20 22 22 20" stroke="#BA9465" stroke-width="1.5" fill="none" stroke-linecap="round"/>
    
    <!-- Heart in center -->
    <path d="M16 14 L14 16 L16 18 L18 16 Z" fill="#FF6B6B" opacity="0.8"/>
  </g>
  
  <!-- Glow effect -->
  <circle cx="32" cy="32" r="30" fill="none" stroke="#BA9465" stroke-width="0.5" opacity="0.3"/>
</svg>
